<svg xmlns="http://www.w3.org/2000/svg" width="85" height="21" viewBox="0 0 85.05 20.8"><path d="M11.4.15a13.8 13.8 0 0 0-6.55 2.1A10.38 10.38 0 0 0 0 10.9a12.35 12.35 0 0 0 1.55 5.85 8.93 8.93 0 0 0 7.4 4 10.03 10.03 0 0 0 7.2-3.1 2.05 2.05 0 0 0 .65-1.45c0-.25-.4-.4-.95 0a7.33 7.33 0 0 1-4.45 1.5 7.29 7.29 0 0 1-6.3-3.35 9.35 9.35 0 0 1-1.3-5A8.56 8.56 0 0 1 5.9 3.6 4.87 4.87 0 0 1 9 1.9c1.7 0 2.55.75 4.2 1.95a5.4 5.4 0 0 0 1.95.95c.2 0 1.65-1.2 1.65-2a2.26 2.26 0 0 0-.75-1.5A9.03 9.03 0 0 0 11.4.15M30.7 0a11.2 11.2 0 0 0-7.4 2.75 9.65 9.65 0 0 0-3.5 7.8 11.06 11.06 0 0 0 3.7 7.65 10.87 10.87 0 0 0 6.65 2.6 9.98 9.98 0 0 0 6.2-2 10.76 10.76 0 0 0 4.35-8.6A10.03 10.03 0 0 0 30.7 0m-.95 1.5a6.3 6.3 0 0 1 4.2 1.95 11.54 11.54 0 0 1 2.5 7.65 11.5 11.5 0 0 1-2.25 6.6 4.58 4.58 0 0 1-3.05 1.65c-2.4 0-5.25-1.8-6.5-5.55a15 15 0 0 1-.6-4.45 9.38 9.38 0 0 1 2.45-6.4 5.26 5.26 0 0 1 3.25-1.45m26-1.35a13.8 13.8 0 0 0-6.55 2.1 10.38 10.38 0 0 0-4.85 8.65 12.35 12.35 0 0 0 1.55 5.85 8.93 8.93 0 0 0 7.4 4 10.03 10.03 0 0 0 7.2-3.1 2.05 2.05 0 0 0 .65-1.45c0-.25-.4-.4-.95 0a7.33 7.33 0 0 1-4.45 1.5 7.29 7.29 0 0 1-6.3-3.35 9.35 9.35 0 0 1-1.3-5 8.56 8.56 0 0 1 2.1-5.75 4.87 4.87 0 0 1 3.1-1.7c1.7 0 2.55.75 4.2 1.95a5.4 5.4 0 0 0 1.95.95c.2 0 1.65-1.2 1.65-2a2.26 2.26 0 0 0-.75-1.5A9.03 9.03 0 0 0 55.75.15M75.05 0a11.2 11.2 0 0 0-7.4 2.75 9.65 9.65 0 0 0-3.5 7.8 11.06 11.06 0 0 0 3.7 7.65 10.87 10.87 0 0 0 6.65 2.6 9.98 9.98 0 0 0 6.2-2 10.76 10.76 0 0 0 4.35-8.6 10.03 10.03 0 0 0-10-10.2m-.95 1.5a6.3 6.3 0 0 1 4.2 1.95 11.54 11.54 0 0 1 2.5 7.65 11.5 11.5 0 0 1-2.25 6.6 4.58 4.58 0 0 1-3.05 1.65c-2.4 0-5.25-1.8-6.5-5.55a15 15 0 0 1-.6-4.45 9.38 9.38 0 0 1 2.45-6.4A5.26 5.26 0 0 1 74.1 1.5"/></svg>